<svg xmlns="http://www.w3.org/2000/svg" viewBox="0 0 72 36" width="72" height="36">
  <!-- Simplified Evergreen Logo for Email -->
  <g fill="#3a6032">
    <!-- Evergreen Tree Symbol -->
    <path d="M36 4L32 16L28 12L24 20L20 16L16 24L12 20L8 28L4 24L0 32L8 36L12 28L16 32L20 24L24 28L28 20L32 24L36 12L40 24L44 20L48 28L52 24L56 32L64 36L68 28L64 24L60 32L56 28L52 36L48 32L44 40L40 36L36 24L32 28L28 32L24 40L20 36L16 32L12 36L8 40L4 36L0 28L4 24L8 28L12 20L16 24L20 16L24 20L28 12L32 16L36 4Z"/>
    
    <!-- E -->
    <path d="M8 8h20v4H12v8h14v4H12v8h16v4H8V8Z"/>
    
    <!-- V -->
    <path d="M28 8h6l-8 24h-4l-8-24h6l6 18L28 8Z"/>
    
    <!-- E -->
    <path d="M38 8h20v4H42v8h14v4H42v8h16v4H38V8Z"/>
    
    <!-- R -->
    <path d="M58 8h14c6 0 10 4 10 8 0 3-2 5-4 6l8 10h-6l-7-9h-2v9h-4V8Zm4 4v8h6c2 0 4-2 4-4s-2-4-4-4h-6Z"/>
    
    <!-- G -->
    <path d="M88 8h14c6 0 10 4 10 8 0 3-2 5-4 6l8 10h-6l-7-9h-2v9h-4V8Zm4 4v8h6c2 0 4-2 4-4s-2-4-4-4h-6Z"/>
    
    <!-- R -->
    <path d="M108 8h14c6 0 10 4 10 8 0 3-2 5-4 6l8 10h-6l-7-9h-2v9h-4V8Zm4 4v8h6c2 0 4-2 4-4s-2-4-4-4h-6Z"/>
    
    <!-- E -->
    <path d="M128 8h20v4h-16v8h14v4h-14v8h16v4h-20V8Z"/>
  </g>
</svg>
